<?xml version="1.0" encoding="UTF-8"?>
<!--Generator: Apple Native CoreSVG 341-->
<!DOCTYPE svg
PUBLIC "-//W3C//DTD SVG 1.1//EN"
       "http://www.w3.org/Graphics/SVG/1.1/DTD/svg11.dtd">
<svg version="1.1" xmlns="http://www.w3.org/2000/svg" xmlns:xlink="http://www.w3.org/1999/xlink" viewBox="0 0 2.33594 1.94238">
 <g>
  <rect height="1.94238" opacity="0" width="2.33594" x="0" y="0"/>
  <path d="M0 1.24023C0.164062 1.50781 0.591797 1.91992 1.16895 1.91992C1.53613 1.91992 1.6377 1.74902 1.85059 1.74902C2.02832 1.74902 2.09863 1.86816 2.12598 1.91504C2.13379 1.92969 2.14746 1.93945 2.15527 1.91113C2.16016 1.89062 2.16602 1.86328 2.16602 1.83008C2.16602 1.73633 2.13672 1.55762 1.98047 1.36133C2.01465 1.26562 2.01855 1.15918 2.01855 1.09668C2.01855 0.8125 1.8584 0.318359 1.3291 0C1.43945 0.155273 1.58691 0.392578 1.58691 0.720703C1.58691 0.839844 1.55469 0.970703 1.52832 1.03613C1.24023 0.869141 0.689453 0.410156 0.469727 0.175781C0.646484 0.447266 0.855469 0.693359 1.08789 0.951172C0.775391 0.75293 0.484375 0.532227 0.213867 0.290039C0.473633 0.666992 0.801758 1.03809 1.23535 1.38867C1.11133 1.45801 0.984375 1.51172 0.765625 1.51172C0.500977 1.51172 0.176758 1.38379 0 1.24023Z" fill="white" fill-opacity="0.85"/>
 </g>
</svg>
